# xmcd
#
# Track frame offsets: 
#        150
#        14782
#        34860
#        49692
#        63482
#        79052
#        94660
#        106510
#        118812
#        130942
#        151412
#        166262
#        181787
#        195447
#        213250
#        236972
#
# Disc length: 3338 seconds
#
# Revision: 2
# Processed by: cddbd v1.5.2PL0 Copyright (c) Steve Scherf et al.
# Submitted via: ExactAudioCopy v0.99pb5
#
DISCID=d10d0810
DTITLE=Louis Armstrong - The Best Of The Complete RCA Victor Recording
DTITLE=s
DYEAR=2000
DGENRE=Jazz
TTITLE0=That's My Home
TTITLE1=Medley Of Armstrong Hits: I'll Be Glad When You're Dead, You R
TTITLE1=ascal You, When It's Sleepy Time Down South, Nobody's Sweethea
TTITLE1=rt
TTITLE2=I've Got The World On A String
TTITLE3=I've Got A Right To Sing The Blues
TTITLE4=High Society
TTITLE5=Basin Street Blues
TTITLE6=Mahogany Hall Stomp
TTITLE7=St. Louis Blues
TTITLE8=Blue Yodel Number 9
TTITLE9=Long, Long Journey
TTITLE10=Back O' Town Blues
TTITLE11=Sugar
TTITLE12=Do You Know What It Means To Miss New Orleans
TTITLE13=Ain't Misbehavin'
TTITLE14=Rockin' Chair
TTITLE15=Jack-Armstrong Blues
EXTD=YEAR: 2000  ID3G:   0
EXTT0=
EXTT1=
EXTT2=
EXTT3=
EXTT4=
EXTT5=
EXTT6=
EXTT7=
EXTT8=
EXTT9=
EXTT10=
EXTT11=
EXTT12=
EXTT13=
EXTT14=
EXTT15=
PLAYORDER=
